# xmcd CD database file
#
# Track frame offsets:
#	150
#	21343
#	45945
#	76773
#	100313
#	123639
#	147457
#	171536
#	196598
#	218678
#	242588
#	269480
#
# Disc length: 3927 seconds
#
# Revision: 0
# Processed by: cddbd v1.5.2PL0 Copyright (c) Steve Scherf et al.
# Submitted via: CDex 1.51
#
DISCID=a50f550c
DTITLE=Dan Gibson - Tahiti - Voices Of Paradise
DYEAR=2008
DGENRE=New Age
TTITLE0=Borabora Nui - Grand Bora Bora
TTITLE1=Te Ahiahi - Evening Song
TTITLE2=Kua Iti Te Marama - Waiting For The Moon To Rise
TTITLE3=Ua Vai Api - At the Edge Of The Water
TTITLE4=Miri
TTITLE5=Aroha Mai - Welcome Friend
TTITLE6=E Piko - Lullaby
TTITLE7=Hoe Ana Te Vaka - Rowing The Canoe
TTITLE8=Tau Tiare - Beautiful Flower
TTITLE9=Tiare Taina - Flower Girl
TTITLE10=Tiare Tahiti - Tahitian Flower
TTITLE11=Vahine Paniora - Spanish Woman
EXTD=YEAR: 2008
EXTT0=
EXTT1=
EXTT2=
EXTT3=
EXTT4=
EXTT5=
EXTT6=
EXTT7=
EXTT8=
EXTT9=
EXTT10=
EXTT11=
PLAYORDER=
